<?xml version="1.0" standalone="no"?>
<!DOCTYPE svg PUBLIC "-//W3C//DTD SVG 20010904//EN"
 "http://www.w3.org/TR/2001/REC-SVG-20010904/DTD/svg10.dtd">
<svg version="1.0" xmlns="http://www.w3.org/2000/svg"
 width="348.000000pt" height="348.000000pt" viewBox="0 0 348.000000 348.000000"
 preserveAspectRatio="xMidYMid meet">
<metadata>
Created by potrace 1.11, written by Peter Selinger 2001-2013
</metadata>
<g transform="translate(0.000000,348.000000) scale(0.100000,-0.100000)"
fill="#000000" stroke="none">
<path d="M269 2841 c-34 -34 -40 -92 -13 -130 29 -41 72 -51 217 -51 l134 0
278 -737 278 -737 -24 -15 c-42 -27 -92 -84 -113 -131 -32 -70 -30 -198 6
-266 56 -107 149 -163 268 -164 127 0 225 63 277 177 22 47 25 66 22 139 l-4
84 307 0 306 0 -10 -37 c-22 -81 10 -198 75 -270 59 -65 117 -88 222 -88 106
0 146 16 213 83 62 62 86 120 86 212 0 124 -58 219 -169 278 l-50 27 -601 3
-602 3 -26 70 c-14 39 -26 72 -26 75 0 2 306 4 680 4 l680 0 29 28 c26 24 47
83 175 502 80 262 146 486 146 499 0 28 -28 77 -49 88 -9 4 -483 10 -1055 13
l-1038 5 -59 160 c-40 108 -68 167 -85 183 -24 21 -31 22 -235 22 l-211 0 -29
-29z m1285 -653 c3 -57 9 -129 13 -161 l6 -57 -242 2 -243 3 -59 155 c-32 85
-59 156 -59 158 0 1 130 2 289 2 l288 0 7 -102z m582 -10 c-4 -62 -9 -134 -13
-160 l-6 -48 -222 0 -222 0 -7 118 c-4 64 -9 136 -12 160 l-6 42 247 0 248 0
-7 -112z m644 104 c0 -5 -20 -75 -45 -156 -25 -82 -45 -150 -45 -152 0 -2
-105 -4 -233 -4 l-232 0 12 143 c6 78 12 150 12 160 1 16 21 17 266 17 146 0
265 -4 265 -8z m-1196 -499 c4 -43 9 -106 12 -140 l6 -63 -183 0 -184 0 -26
73 c-15 39 -38 102 -52 140 l-26 67 223 0 224 0 6 -77z m522 0 c-4 -43 -9
-106 -12 -140 l-6 -63 -193 0 -192 0 -9 140 -9 140 214 0 213 0 -6 -77z m544
70 c0 -4 -19 -67 -42 -140 l-41 -133 -186 0 -186 0 11 138 c7 75 12 138 13
140 3 6 431 1 431 -5z m-1292 -868 c39 -32 48 -74 28 -114 -20 -37 -44 -51
-91 -51 -80 0 -115 101 -56 161 37 37 79 38 119 4z m1181 11 c54 -28 66 -97
25 -145 -21 -26 -33 -31 -69 -31 -36 0 -48 5 -69 31 -41 48 -31 115 21 143 35
19 57 20 92 2z"/>
</g>
</svg>
